<svg id="mySvg" width="64" height="64" viewBox="0 0 24 24" fill="none" xmlns="http://www.w3.org/2000/svg">
            <!--
            * The <defs> element is used to define reusable graphics objects.
            * Here, it defines the linear gradient referenced by the path's 'fill' attribute.
            -->
            <defs>
                <linearGradient id="paint0_linear_6651_5783" x1="12" y1="1.7" x2="12" y2="22.25" gradientUnits="userSpaceOnUse">
                    <stop stop-color="#FFD700"/>
                    <stop offset="1" stop-color="#FF8C00"/>
                </linearGradient>
            </defs>
            <!-- The path element containing the SVG data -->
            <path d="M8.7221 7.50194L11.1473 2.67049C11.4277 2.11345 12.106 1.88988 12.6593 2.17029C12.8753 2.28018 13.0496 2.45828 13.1595 2.67807L15.452 7.339C15.6377 7.72173 16.0053 7.97941 16.4259 8.02867L21.2195 8.60465C21.8712 8.68423 22.3373 9.27916 22.2615 9.93473C22.2274 10.2038 22.1062 10.4539 21.9129 10.6433L18.1198 14.3835C17.9644 14.535 17.8924 14.7472 17.9189 14.9632L18.5517 20.0107C18.6427 20.7345 18.1311 21.3938 17.4111 21.4848C17.1383 21.5189 16.8655 21.4696 16.623 21.337L12.6176 19.1467C12.3258 18.9876 11.9772 18.9838 11.6854 19.1353L7.53223 21.265C6.94867 21.5643 6.23627 21.3294 5.93691 20.742C5.82322 20.5222 5.78533 20.2759 5.81944 20.0334L6.14911 17.7143C6.31205 16.5813 7.01309 15.5961 8.02864 15.0769L12.6365 12.7237C12.7578 12.6631 12.807 12.5115 12.7464 12.3865C12.6972 12.2917 12.5948 12.2349 12.4887 12.25L6.85015 13.061C5.98996 13.1822 5.1184 12.9397 4.4401 12.3865L2.56436 10.8555C2.03006 10.4198 1.9429 9.624 2.37868 9.08591C2.58331 8.83581 2.87509 8.67286 3.1934 8.63118L8.00591 8.01351C8.31285 7.97183 8.58189 7.78236 8.7221 7.50194Z" fill="url(#paint0_linear_6651_5783)"/>
        </svg>